<svg width="34" height="34" viewBox="0 0 34 34" fill="none" xmlns="http://www.w3.org/2000/svg">
  <path
    d="M20.3993 27.3888C20.3993 27.1383 20.2998 26.8981 20.1227 26.721C19.9456 26.5438 19.7053 26.4443 19.4549 26.4443H13.7882C13.5377 26.4443 13.2975 26.5438 13.1204 26.721C12.9433 26.8981 12.8438 27.1383 12.8438 27.3888C12.8438 27.6393 12.9433 27.8795 13.1204 28.0566C13.2975 28.2337 13.5377 28.3332 13.7882 28.3332H19.4549C19.7053 28.3332 19.9456 28.2337 20.1227 28.0566C20.2998 27.8795 20.3993 27.6393 20.3993 27.3888Z"
    fill="white" />
  <path
    d="M21.2869 22.6667H15.6202C15.3697 22.6667 15.1295 22.7663 14.9524 22.9434C14.7753 23.1205 14.6758 23.3607 14.6758 23.6112C14.6758 23.8617 14.7753 24.1019 14.9524 24.279C15.1295 24.4561 15.3697 24.5556 15.6202 24.5556H21.2869C21.5374 24.5556 21.7776 24.4561 21.9547 24.279C22.1318 24.1019 22.2313 23.8617 22.2313 23.6112C22.2313 23.3607 22.1318 23.1205 21.9547 22.9434C21.7776 22.7663 21.5374 22.6667 21.2869 22.6667Z"
    fill="white" />
  <path
    d="M20.7771 30.2222H15.1105C14.86 30.2222 14.6198 30.3217 14.4426 30.4988C14.2655 30.6759 14.166 30.9161 14.166 31.1666C14.166 31.4171 14.2655 31.6573 14.4426 31.8344C14.6198 32.0116 14.86 32.1111 15.1105 32.1111H20.7771C21.0276 32.1111 21.2678 32.0116 21.445 31.8344C21.6221 31.6573 21.7216 31.4171 21.7216 31.1666C21.7216 30.9161 21.6221 30.6759 21.445 30.4988C21.2678 30.3217 21.0276 30.2222 20.7771 30.2222Z"
    fill="white" />
  <path
    d="M30.8837 30.2222H24.2726C24.0221 30.2222 23.7819 30.3217 23.6047 30.4988C23.4276 30.6759 23.3281 30.9161 23.3281 31.1666C23.3281 31.4171 23.4276 31.6573 23.6047 31.8344C23.7819 32.0116 24.0221 32.1111 24.2726 32.1111H30.8837C31.1342 32.1111 31.3744 32.0116 31.5515 31.8344C31.7286 31.6573 31.8281 31.4171 31.8281 31.1666C31.8281 30.9161 31.7286 30.6759 31.5515 30.4988C31.3744 30.3217 31.1342 30.2222 30.8837 30.2222Z"
    fill="white" />
  <path
    d="M31.827 26.4443H25.2159C24.9654 26.4443 24.7252 26.5438 24.5481 26.721C24.371 26.8981 24.2715 27.1383 24.2715 27.3888C24.2715 27.6393 24.371 27.8795 24.5481 28.0566C24.7252 28.2337 24.9654 28.3332 25.2159 28.3332H31.827C32.0775 28.3332 32.3177 28.2337 32.4949 28.0566C32.672 27.8795 32.7715 27.6393 32.7715 27.3888C32.7715 27.1383 32.672 26.8981 32.4949 26.721C32.3177 26.5438 32.0775 26.4443 31.827 26.4443Z"
    fill="white" />
  <path
    d="M31.8654 24.5556C31.5886 21.2302 30.685 17.9872 29.2021 14.9978C27.7816 12.2964 25.7349 9.97449 23.2332 8.22614L25.4999 3.23003C25.573 3.08071 25.6053 2.91476 25.5937 2.74893C25.5821 2.58309 25.5269 2.42326 25.4338 2.28559C25.3478 2.16481 25.2346 2.06596 25.1033 1.99705C24.9721 1.92814 24.8264 1.8911 24.6782 1.88892H9.25543C9.09666 1.88853 8.94036 1.92816 8.80096 2.00417C8.66157 2.08018 8.54359 2.1901 8.45792 2.32378C8.37225 2.45745 8.32167 2.61057 8.31085 2.76897C8.30002 2.92737 8.32931 3.08594 8.39599 3.23003L10.7099 8.24503C8.22571 9.99421 6.19282 12.3087 4.77877 14.9978C2.74821 18.7756 2.11543 23.3939 1.94543 26.5956C1.9176 27.0643 1.98714 27.5337 2.14969 27.9742C2.31224 28.4147 2.56426 28.8168 2.88988 29.155C3.23242 29.487 3.63769 29.7473 4.08202 29.9209C4.52635 30.0944 5.0008 30.1776 5.47766 30.1656H11.3332V28.3334H5.4021C5.18836 28.3327 4.97696 28.2889 4.78058 28.2045C4.5842 28.1201 4.40691 27.9969 4.25932 27.8423C4.11152 27.6889 3.99738 27.5063 3.92419 27.3063C3.85101 27.1063 3.8204 26.8931 3.83432 26.6806C3.96654 24.2156 4.48599 19.5217 6.44099 15.8667C7.81915 13.2479 9.85708 11.0341 12.3532 9.44448H13.2977C12.658 10.3301 12.0683 11.2508 11.5315 12.2023C10.986 13.2153 10.5217 14.2701 10.1432 15.3567L11.4371 16.2256C11.8194 15.0979 12.2899 14.0021 12.8443 12.9484C13.5248 11.7229 14.2984 10.5515 15.1582 9.44448H16.1027C16.7358 10.9589 17.1829 12.5446 17.4343 14.1667C17.6397 15.3709 17.7408 16.5906 17.7365 17.8123L19.2288 16.7639C19.1875 15.8141 19.0866 14.8678 18.9265 13.9306C18.672 12.3991 18.2671 10.8965 17.7177 9.44448H18.4543L19.3138 7.55559H12.476L10.7288 3.77781H23.2049L20.8438 8.94392C21.2484 9.16091 21.6366 9.40712 22.0054 9.68059C24.3202 11.2762 26.2182 13.4042 27.5399 15.8856C28.8644 18.6058 29.6867 21.543 29.9671 24.5556H31.8654Z"
    fill="white" />
</svg>