<svg width="44" height="44" viewBox="0 0 44 44" fill="none" xmlns="http://www.w3.org/2000/svg">
<path d="M22 34C20.3484 34 18.7929 33.6844 17.3333 33.0533C15.8738 32.4213 14.6027 31.5635 13.52 30.48C12.4373 29.3964 11.5796 28.1253 10.9467 26.6667C10.3138 25.208 9.99823 23.6524 10 22C10 20.3431 10.3156 18.7862 10.9467 17.3293C11.5787 15.8716 12.4365 14.6018 13.52 13.52C14.6036 12.4382 15.8747 11.5804 17.3333 10.9467C18.7929 10.3156 20.3484 10 22 10C23.6569 10 25.2138 10.3156 26.6707 10.9467C28.1284 11.5787 29.3987 12.4364 30.4813 13.52C31.564 14.6036 32.4213 15.8733 33.0533 17.3293C33.6844 18.7871 34 20.344 34 22C34 23.6516 33.6844 25.2071 33.0533 26.6667C32.4213 28.1262 31.5636 29.3973 30.48 30.48C29.3964 31.5627 28.1267 32.4204 26.6707 33.0533C25.2147 33.6862 23.6578 34.0018 22 34ZM22 32.6773C22.7822 31.672 23.4276 30.6849 23.936 29.716C24.4436 28.7471 24.8564 27.6627 25.1747 26.4627H18.8253C19.1782 27.7302 19.5996 28.8484 20.0893 29.8173C20.58 30.7862 21.2169 31.7395 22 32.6773ZM20.3027 32.4773C19.6804 31.744 19.1124 30.8373 18.5987 29.7573C18.0849 28.6782 17.7027 27.5795 17.452 26.4613H12.3387C13.1031 28.1191 14.1862 29.4791 15.588 30.5413C16.9907 31.6027 18.5622 32.248 20.3027 32.4773ZM23.6973 32.4773C25.4378 32.248 27.0093 31.6027 28.412 30.5413C29.8138 29.4791 30.8969 28.1191 31.6613 26.4613H26.5493C26.2116 27.5964 25.7862 28.7035 25.2733 29.7827C24.7596 30.8627 24.2342 31.7618 23.6973 32.4773ZM11.7947 25.1293H17.1747C17.0733 24.5818 17.0022 24.0484 16.9613 23.5293C16.9187 23.0111 16.8973 22.5013 16.8973 22C16.8973 21.4987 16.9182 20.9889 16.96 20.4707C17.0018 19.9524 17.0729 19.4191 17.1733 18.8707H11.796C11.6511 19.3329 11.5378 19.8364 11.456 20.3813C11.3742 20.9253 11.3333 21.4649 11.3333 22C11.3333 22.5351 11.3738 23.0751 11.4547 23.62C11.5356 24.1649 11.6489 24.6676 11.7947 25.128M18.508 25.128H25.492C25.5933 24.5813 25.6644 24.0569 25.7053 23.5547C25.748 23.0533 25.7693 22.5351 25.7693 22C25.7693 21.4649 25.7484 20.9467 25.7067 20.4453C25.6649 19.944 25.5938 19.4196 25.4933 18.872H18.5067C18.4062 19.4187 18.3351 19.9431 18.2933 20.4453C18.2516 20.9467 18.2307 21.4649 18.2307 22C18.2307 22.5351 18.2516 23.0533 18.2933 23.5547C18.3351 24.056 18.4076 24.5804 18.508 25.128ZM26.8267 25.128H32.2053C32.3502 24.6667 32.4636 24.164 32.5453 23.62C32.6262 23.0751 32.6667 22.5351 32.6667 22C32.6667 21.4649 32.6262 20.9249 32.5453 20.38C32.4644 19.8351 32.3511 19.3324 32.2053 18.872H26.8253C26.9267 19.4187 26.9978 19.9516 27.0387 20.4707C27.0813 20.9898 27.1027 21.4996 27.1027 22C27.1027 22.5004 27.0818 23.0102 27.04 23.5293C26.9982 24.0484 26.9271 24.5818 26.8267 25.1293M26.5493 17.5387H31.6613C30.88 15.8462 29.8098 14.4862 28.4507 13.4587C27.0916 12.4311 25.5071 11.7773 23.6973 11.4973C24.3196 12.316 24.8791 13.2524 25.376 14.3067C25.8729 15.36 26.264 16.4373 26.5493 17.5387ZM18.8253 17.5387H25.1747C24.8227 16.2871 24.3884 15.1556 23.872 14.144C23.3556 13.1324 22.7316 12.192 22 11.3227C21.2684 12.1911 20.6444 13.1316 20.128 14.144C19.6116 15.1564 19.1764 16.288 18.8253 17.5387ZM12.34 17.5387H17.452C17.7373 16.4382 18.1284 15.3609 18.6253 14.3067C19.1222 13.2524 19.6818 12.316 20.304 11.4973C18.4782 11.7782 16.8898 12.436 15.5387 13.4707C14.1876 14.5071 13.1209 15.8627 12.3387 17.5373" fill="white"/>
</svg>
